<svg width="26" height="29" viewBox="0 0 26 29" fill="none" xmlns="http://www.w3.org/2000/svg">
<g filter="url(#filter0_d)">
<path d="M7.62 10.79C9.06 13.62 11.38 15.93 14.21 17.38L16.41 15.18C16.68 14.91 17.08 14.82 17.43 14.94C18.55 15.31 19.76 15.51 21 15.51C21.55 15.51 22 15.96 22 16.51V20C22 20.55 21.55 21 21 21C11.61 21 4 13.39 4 4C4 3.45 4.45 3 5 3H8.5C9.05 3 9.5 3.45 9.5 4C9.5 5.25 9.7 6.45 10.07 7.57C10.18 7.92 10.1 8.31 9.82 8.59L7.62 10.79Z" fill="#1F3F68"/>
</g>
<defs>
<filter id="filter0_d" x="-3" y="0" width="32" height="32" filterUnits="userSpaceOnUse" color-interpolation-filters="sRGB">
<feFlood flood-opacity="0" result="BackgroundImageFix"/>
<feColorMatrix in="SourceAlpha" type="matrix" values="0 0 0 0 0 0 0 0 0 0 0 0 0 0 0 0 0 0 127 0"/>
<feOffset dy="4"/>
<feGaussianBlur stdDeviation="2"/>
<feColorMatrix type="matrix" values="0 0 0 0 0 0 0 0 0 0 0 0 0 0 0 0 0 0 0.25 0"/>
<feBlend mode="normal" in2="BackgroundImageFix" result="effect1_dropShadow"/>
<feBlend mode="normal" in="SourceGraphic" in2="effect1_dropShadow" result="shape"/>
</filter>
</defs>
</svg>
